<svg xmlns="http://www.w3.org/2000/svg" width="1920" height="1076" viewBox="0 0 1920 1076"><rect width="100%" height="100%" fill="#DDDDDD"/><path fill="#999999" d="M458.69 592.33h26.26v18.69h-80.8v-18.69h29.59v-85.14q0-5.05.3-10.4l-21 17.57q-1.82 1.42-3.59 1.77-1.77.35-3.33.05-1.57-.3-2.78-1.06-1.21-.76-1.82-1.67l-7.88-10.8 44.55-37.88h20.5v127.56Zm72.21-83.52q0 12.22 6.32 18.63 6.31 6.42 17.92 6.42 6.06 0 10.81-1.92 4.75-1.92 7.98-5.26 3.23-3.33 4.9-7.87 1.66-4.55 1.66-9.8 0-5.96-1.81-10.66-1.82-4.69-5.15-7.92-3.34-3.24-7.93-4.95-4.6-1.72-10.05-1.72-5.66 0-10.2 1.87-4.55 1.87-7.78 5.2-3.23 3.33-4.95 7.93-1.72 4.59-1.72 10.05Zm-12.22 102.21 45.35-56.66q1.72-2.12 3.23-4.14 1.52-2.02 2.93-4.04-5.05 3.23-11.11 4.9-6.06 1.66-12.72 1.66-7.58 0-14.85-2.62-7.27-2.63-12.93-7.93-5.65-5.3-9.14-13.13-3.48-7.83-3.48-18.33 0-9.8 3.63-18.39 3.64-8.58 10.2-15.04 6.57-6.47 15.76-10.21 9.19-3.73 20.3-3.73 11.21 0 20.15 3.53 8.94 3.54 15.25 9.9 6.31 6.36 9.7 15.25 3.38 8.89 3.38 19.5 0 6.76-1.16 12.82-1.16 6.06-3.28 11.67-2.12 5.6-5.15 10.96-3.03 5.35-6.77 10.6l-33.43 47.67q-1.72 2.43-5.15 4.09-3.44 1.67-7.78 1.67h-22.93Zm157.66-23.23h37.48q4.04 0 6.41 2.27t2.37 6.01v14.95H622.41v-8.28q0-2.53 1.06-5.3 1.06-2.78 3.38-5L671.19 548q5.56-5.66 9.95-10.81t7.32-10.2q2.93-5.05 4.5-10.25 1.56-5.2 1.56-10.96 0-5.25-1.51-9.24-1.52-3.99-4.29-6.72-2.78-2.73-6.67-4.09-3.89-1.36-8.74-1.36-4.44 0-8.23 1.26t-6.71 3.53q-2.93 2.28-4.95 5.31t-3.03 6.66q-1.72 4.65-4.45 6.16-2.72 1.52-7.87.71l-13.13-2.32q1.51-10.51 5.85-18.44 4.35-7.92 10.86-13.23 6.51-5.3 14.95-7.98 8.43-2.67 18.13-2.67 10.1 0 18.48 2.98t14.34 8.43q5.96 5.45 9.29 13.13 3.34 7.68 3.34 17.07 0 8.08-2.38 14.95-2.37 6.87-6.36 13.13-3.99 6.26-9.34 12.12-5.35 5.86-11.21 11.92l-32.93 33.63q4.75-1.41 9.45-2.17 4.69-.76 8.93-.76ZM844 538q0 19.09-4.09 33.18-4.09 14.08-11.31 23.28-7.22 9.19-17.07 13.68-9.84 4.5-21.26 4.5-11.41 0-21.16-4.5-9.74-4.49-16.91-13.68-7.18-9.2-11.22-23.28-4.04-14.09-4.04-33.18 0-19.19 4.04-33.23 4.04-14.04 11.22-23.23 7.17-9.19 16.91-13.69 9.75-4.49 21.16-4.49 11.42 0 21.26 4.49 9.85 4.5 17.07 13.69 7.22 9.19 11.31 23.23Q844 518.81 844 538Zm-25.75 0q0-15.86-2.32-26.26-2.33-10.41-6.22-16.57-3.88-6.16-8.93-8.63-5.05-2.48-10.51-2.48-5.35 0-10.35 2.48-5 2.47-8.84 8.63t-6.11 16.57q-2.27 10.4-2.27 26.26 0 15.85 2.27 26.26 2.27 10.4 6.11 16.56 3.84 6.16 8.84 8.64 5 2.47 10.35 2.47 5.46 0 10.51-2.47 5.05-2.48 8.93-8.64 3.89-6.16 6.22-16.56 2.32-10.41 2.32-26.26Zm186.14 39.59-13.23 13.03-34.24-34.24-34.54 34.44-13.23-13.03 34.54-34.64-32.92-32.93 13.13-13.13 32.92 32.93 32.73-32.73 13.33 13.13-32.83 32.83 34.34 34.34Zm138.27 14.74h26.26v18.69h-80.8v-18.69h29.59v-85.14q0-5.05.31-10.4l-21.01 17.57q-1.82 1.42-3.59 1.77-1.76.35-3.33.05-1.56-.3-2.78-1.06-1.21-.76-1.81-1.67l-7.88-10.8 44.54-37.88h20.5v127.56Zm151-54.33q0 19.09-4.09 33.18-4.09 14.08-11.32 23.28-7.22 9.19-17.07 13.68-9.84 4.5-21.26 4.5-11.41 0-21.16-4.5-9.74-4.49-16.91-13.68-7.17-9.2-11.21-23.28-4.04-14.09-4.04-33.18 0-19.19 4.04-33.23 4.04-14.04 11.21-23.23 7.17-9.19 16.91-13.69 9.75-4.49 21.16-4.49 11.42 0 21.26 4.49 9.85 4.5 17.07 13.69 7.23 9.19 11.32 23.23 4.09 14.04 4.09 33.23Zm-25.76 0q0-15.86-2.32-26.26-2.32-10.41-6.21-16.57t-8.94-8.63q-5.05-2.48-10.51-2.48-5.35 0-10.35 2.48-5 2.47-8.84 8.63-3.83 6.16-6.11 16.57-2.27 10.4-2.27 26.26 0 15.85 2.27 26.26 2.28 10.4 6.11 16.56 3.84 6.16 8.84 8.64 5 2.47 10.35 2.47 5.46 0 10.51-2.47 5.05-2.48 8.94-8.64 3.89-6.16 6.21-16.56 2.32-10.41 2.32-26.26Zm40.2-73.03H1409v10.81q0 4.85-1.01 7.83-1.01 2.98-2.02 5l-55.35 113.93q-1.72 3.53-4.85 6.01-3.13 2.47-8.38 2.47h-18.08l56.46-111.61q1.92-3.43 3.79-6.31 1.87-2.88 4.19-5.5h-69.89q-2.33 0-4.04-1.72-1.72-1.72-1.72-4.04v-16.87Zm203.82 0L1468.59 518l-5.05 6.26q4.24-2.12 9.14-3.28 4.9-1.16 10.55-1.16 8.29 0 16.11 2.72 7.83 2.73 13.79 8.24 5.96 5.5 9.59 13.68 3.64 8.18 3.64 19.09 0 10.2-3.74 19.14-3.73 8.94-10.5 15.6-6.77 6.67-16.31 10.51-9.55 3.84-21.06 3.84-11.72 0-21.01-3.74-9.29-3.74-15.86-10.45-6.56-6.72-10.05-16.16-3.48-9.45-3.48-20.96 0-10.3 4.19-21.16t12.98-22.58l34.85-46.76q1.81-2.42 5.3-4.14 3.48-1.72 8.03-1.72h22.22Zm-37.68 127.26q5.96 0 10.96-2.02 5-2.02 8.59-5.65 3.58-3.64 5.6-8.54 2.02-4.9 2.02-10.65 0-6.26-1.92-11.26-1.91-5-5.45-8.49-3.53-3.48-8.48-5.3-4.95-1.82-10.91-1.82t-10.81 2.02q-4.85 2.02-8.28 5.61-3.43 3.58-5.35 8.48-1.92 4.9-1.92 10.56 0 6.06 1.66 11.06 1.67 4.99 4.95 8.53 3.29 3.53 8.13 5.5 4.85 1.97 11.21 1.97Z"/></svg>