<?xml version="1.0" encoding="UTF-8"?>
<!DOCTYPE svg PUBLIC "-//W3C//DTD SVG 1.1//EN" "http://www.w3.org/Graphics/SVG/1.1/DTD/svg11.dtd">
<!-- Creator: CorelDRAW -->
<svg xmlns="http://www.w3.org/2000/svg" xml:space="preserve" width="400px" height="51px" version="1.1" style="shape-rendering:geometricPrecision; text-rendering:geometricPrecision; image-rendering:optimizeQuality; fill-rule:evenodd; clip-rule:evenodd"
viewBox="0 0 148.36 18.85"
 xmlns:xlink="http://www.w3.org/1999/xlink"
 xmlns:xodm="http://www.corel.com/coreldraw/odm/2003">
 <defs>
  <style type="text/css">
   <![CDATA[
    .fil179 {fill:black}
    .fil178 {fill:#010101}
    .fil177 {fill:#020202}
    .fil176 {fill:#030303}
    .fil175 {fill:#040404}
    .fil174 {fill:#050505}
    .fil173 {fill:#060606}
    .fil172 {fill:#070707}
    .fil171 {fill:#080808}
    .fil170 {fill:#090909}
    .fil169 {fill:#0A0A0A}
    .fil168 {fill:#0B0B0B}
    .fil167 {fill:#0C0C0C}
    .fil166 {fill:#0D0D0D}
    .fil165 {fill:#0E0E0E}
    .fil164 {fill:#0F0F0F}
    .fil163 {fill:#101010}
    .fil162 {fill:#111111}
    .fil161 {fill:#121212}
    .fil160 {fill:#131313}
    .fil159 {fill:#141414}
    .fil158 {fill:#151515}
    .fil157 {fill:#161616}
    .fil156 {fill:#171717}
    .fil155 {fill:#181818}
    .fil154 {fill:#191919}
    .fil153 {fill:#1A1A1A}
    .fil152 {fill:#1B1B1B}
    .fil151 {fill:#1C1C1C}
    .fil150 {fill:#1D1D1D}
    .fil149 {fill:#1E1E1E}
    .fil148 {fill:#1F1F1F}
    .fil147 {fill:#202020}
    .fil146 {fill:#212121}
    .fil145 {fill:#222222}
    .fil144 {fill:#232323}
    .fil143 {fill:#242424}
    .fil142 {fill:#252525}
    .fil141 {fill:#262626}
    .fil140 {fill:#272727}
    .fil139 {fill:#282828}
    .fil138 {fill:#292929}
    .fil137 {fill:#2A2A2A}
    .fil136 {fill:#2B2B2B}
    .fil135 {fill:#2C2C2C}
    .fil134 {fill:#2D2D2D}
    .fil133 {fill:#2E2E2E}
    .fil132 {fill:#2F2F2F}
    .fil131 {fill:#303030}
    .fil130 {fill:#313131}
    .fil129 {fill:#323232}
    .fil128 {fill:#333333}
    .fil127 {fill:#343434}
    .fil126 {fill:#353535}
    .fil125 {fill:#363636}
    .fil124 {fill:#373737}
    .fil123 {fill:#383838}
    .fil122 {fill:#393939}
    .fil121 {fill:#3A3A3A}
    .fil120 {fill:#3B3B3B}
    .fil119 {fill:#3C3C3C}
    .fil118 {fill:#3D3D3D}
    .fil117 {fill:#3E3E3E}
    .fil116 {fill:#3F3F3F}
    .fil115 {fill:#404040}
    .fil114 {fill:#414141}
    .fil113 {fill:#424242}
    .fil112 {fill:#434343}
    .fil111 {fill:#444444}
    .fil110 {fill:#454545}
    .fil109 {fill:#464646}
    .fil108 {fill:#474747}
    .fil107 {fill:#484848}
    .fil106 {fill:#494949}
    .fil105 {fill:#4A4A4A}
    .fil104 {fill:#4B4B4B}
    .fil103 {fill:#4C4C4C}
    .fil102 {fill:#4D4D4D}
    .fil101 {fill:#4E4E4E}
    .fil100 {fill:#4F4F4F}
    .fil99 {fill:#505050}
    .fil98 {fill:#515151}
    .fil97 {fill:#525252}
    .fil96 {fill:#535353}
    .fil95 {fill:#545454}
    .fil94 {fill:#555555}
    .fil93 {fill:#565656}
    .fil92 {fill:#575757}
    .fil91 {fill:#585858}
    .fil90 {fill:#595959}
    .fil89 {fill:#5A5A5A}
    .fil88 {fill:#5B5B5B}
    .fil87 {fill:#5C5C5C}
    .fil86 {fill:#5D5D5D}
    .fil85 {fill:#5E5E5E}
    .fil84 {fill:#5F5F5F}
    .fil83 {fill:#606060}
    .fil82 {fill:#616161}
    .fil81 {fill:#626262}
    .fil80 {fill:#636363}
    .fil79 {fill:#646464}
    .fil78 {fill:#656565}
    .fil77 {fill:#666666}
    .fil76 {fill:#676767}
    .fil75 {fill:#686868}
    .fil74 {fill:dimgray}
    .fil73 {fill:#6A6A6A}
    .fil72 {fill:#6B6B6B}
    .fil71 {fill:#6C6C6C}
    .fil70 {fill:#6D6D6D}
    .fil69 {fill:#6E6E6E}
    .fil68 {fill:#6F6F6F}
    .fil67 {fill:#707070}
    .fil66 {fill:#717171}
    .fil65 {fill:#727272}
    .fil64 {fill:#737373}
    .fil63 {fill:#747474}
    .fil62 {fill:#757575}
    .fil61 {fill:#767676}
    .fil60 {fill:#777777}
    .fil59 {fill:#787878}
    .fil0 {fill:#797979}
    .fil1 {fill:#7A7A7A}
    .fil2 {fill:#7B7B7B}
    .fil3 {fill:#7C7C7C}
    .fil4 {fill:#7D7D7D}
    .fil5 {fill:#7E7E7E}
    .fil6 {fill:#7F7F7F}
    .fil7 {fill:gray}
    .fil8 {fill:#818181}
    .fil9 {fill:#828282}
    .fil10 {fill:#838383}
    .fil11 {fill:#848484}
    .fil12 {fill:#858585}
    .fil13 {fill:#868686}
    .fil14 {fill:#878787}
    .fil15 {fill:#888888}
    .fil16 {fill:#898989}
    .fil17 {fill:#8A8A8A}
    .fil18 {fill:#8B8B8B}
    .fil19 {fill:#8C8C8C}
    .fil20 {fill:#8D8D8D}
    .fil21 {fill:#8E8E8E}
    .fil22 {fill:#8F8F8F}
    .fil23 {fill:#909090}
    .fil24 {fill:#919191}
    .fil25 {fill:#929292}
    .fil26 {fill:#939393}
    .fil27 {fill:#949494}
    .fil28 {fill:#959595}
    .fil29 {fill:#969696}
    .fil30 {fill:#979797}
    .fil31 {fill:#989898}
    .fil32 {fill:#999999}
    .fil33 {fill:#9A9A9A}
    .fil34 {fill:#9B9B9B}
    .fil35 {fill:#9C9C9C}
    .fil36 {fill:#9D9D9D}
    .fil37 {fill:#9E9E9E}
    .fil38 {fill:#9F9F9F}
    .fil39 {fill:#A0A0A0}
    .fil40 {fill:#A1A1A1}
    .fil41 {fill:#A2A2A2}
    .fil42 {fill:#A3A3A3}
    .fil43 {fill:#A4A4A4}
    .fil44 {fill:#A5A5A5}
    .fil45 {fill:#A6A6A6}
    .fil46 {fill:#A7A7A7}
    .fil47 {fill:#A8A8A8}
    .fil48 {fill:darkgray}
    .fil49 {fill:#AAAAAA}
    .fil50 {fill:#ABABAB}
    .fil51 {fill:#ACACAC}
    .fil52 {fill:#ADADAD}
    .fil53 {fill:#AEAEAE}
    .fil54 {fill:#AFAFAF}
    .fil55 {fill:#B0B0B0}
    .fil56 {fill:#B1B1B1}
    .fil57 {fill:#B2B2B2}
    .fil180 {fill:#B3B3B3}
    .fil58 {fill:#B3B3B3}
    .fil181 {fill:#CCCCCC;fill-rule:nonzero}
   ]]>
  </style>
      <clipPath id="id0">
       <path d="M20.12 18.85l16.59 -17.05 -8.85 -1.8 -14.15 14.29 6.41 4.56z"/>
      </clipPath>
 </defs>
 <g id="Camada_x0020_1">
  <metadata id="CorelCorpID_0Corel-Layer"/>
  <g id="_1791970982448">
   <g>
    <g>
     <g style="clip-path:url(#id0)">
      <polygon class="fil0" points="13.58,14.16 13.63,14.1 19.22,19.74 19.17,19.79 "/>
      <polygon id="_1" class="fil1" points="13.61,14.12 13.68,14.06 19.27,19.69 19.2,19.76 "/>
      <polygon id="_2" class="fil2" points="13.66,14.08 13.72,14.01 19.31,19.65 19.25,19.72 "/>
      <polygon id="_3" class="fil2" points="13.7,14.03 13.77,13.97 19.36,19.6 19.29,19.67 "/>
      <polygon id="_4" class="fil3" points="13.75,13.99 13.81,13.92 19.4,19.56 19.34,19.63 "/>
      <polygon id="_5" class="fil3" points="13.79,13.94 13.86,13.88 19.45,19.51 19.38,19.58 "/>
      <polygon id="_6" class="fil4" points="13.84,13.9 13.9,13.83 19.49,19.47 19.43,19.54 "/>
      <polygon id="_7" class="fil4" points="13.88,13.86 13.95,13.79 19.54,19.43 19.47,19.49 "/>
      <polygon id="_8" class="fil5" points="13.93,13.81 14,13.74 19.58,19.38 19.52,19.45 "/>
      <polygon id="_9" class="fil6" points="13.97,13.77 14.04,13.7 19.63,19.34 19.56,19.4 "/>
      <polygon id="_10" class="fil6" points="14.02,13.72 14.09,13.65 19.67,19.29 19.61,19.36 "/>
      <polygon id="_11" class="fil7" points="14.06,13.68 14.13,13.61 19.72,19.25 19.65,19.31 "/>
      <polygon id="_12" class="fil7" points="14.11,13.63 14.18,13.56 19.76,19.2 19.7,19.27 "/>
      <polygon id="_13" class="fil8" points="14.15,13.59 14.22,13.52 19.81,19.16 19.74,19.22 "/>
      <polygon id="_14" class="fil9" points="14.2,13.54 14.27,13.48 19.86,19.11 19.79,19.18 "/>
      <polygon id="_15" class="fil9" points="14.24,13.5 14.31,13.43 19.9,19.07 19.83,19.13 "/>
      <polygon id="_16" class="fil10" points="14.29,13.45 14.36,13.39 19.95,19.02 19.88,19.09 "/>
      <polygon id="_17" class="fil10" points="14.33,13.41 14.4,13.34 19.99,18.98 19.92,19.05 "/>
      <polygon id="_18" class="fil11" points="14.38,13.36 14.45,13.3 20.04,18.93 19.97,19 "/>
      <polygon id="_19" class="fil11" points="14.42,13.32 14.49,13.25 20.08,18.89 20.01,18.96 "/>
      <polygon id="_20" class="fil12" points="14.47,13.27 14.54,13.21 20.13,18.84 20.06,18.91 "/>
      <polygon id="_21" class="fil13" points="14.51,13.23 14.58,13.16 20.17,18.8 20.1,18.87 "/>
      <polygon id="_22" class="fil13" points="14.56,13.18 14.63,13.12 20.22,18.75 20.15,18.82 "/>
      <polygon id="_23" class="fil14" points="14.6,13.14 14.67,13.07 20.26,18.71 20.19,18.78 "/>
      <polygon id="_24" class="fil14" points="14.65,13.09 14.72,13.03 20.31,18.66 20.24,18.73 "/>
      <polygon id="_25" class="fil15" points="14.69,13.05 14.76,12.98 20.35,18.62 20.28,18.69 "/>
      <polygon id="_26" class="fil15" points="14.74,13.01 14.81,12.94 20.4,18.58 20.33,18.64 "/>
      <polygon id="_27" class="fil16" points="14.79,12.96 14.85,12.89 20.44,18.53 20.37,18.6 "/>
      <polygon id="_28" class="fil17" points="14.83,12.92 14.9,12.85 20.49,18.49 20.42,18.55 "/>
      <polygon id="_29" class="fil17" points="14.88,12.87 14.94,12.8 20.53,18.44 20.46,18.51 "/>
      <polygon id="_30" class="fil18" points="14.92,12.83 14.99,12.76 20.58,18.4 20.51,18.46 "/>
      <polygon id="_31" class="fil18" points="14.97,12.78 15.03,12.71 20.62,18.35 20.55,18.42 "/>
      <polygon id="_32" class="fil19" points="15.01,12.74 15.08,12.67 20.67,18.31 20.6,18.37 "/>
      <polygon id="_33" class="fil19" points="15.06,12.69 15.12,12.63 20.71,18.26 20.64,18.33 "/>
      <polygon id="_34" class="fil20" points="15.1,12.65 15.17,12.58 20.76,18.22 20.69,18.28 "/>
      <polygon id="_35" class="fil21" points="15.15,12.6 15.21,12.54 20.8,18.17 20.73,18.24 "/>
      <polygon id="_36" class="fil21" points="15.19,12.56 15.26,12.49 20.85,18.13 20.78,18.2 "/>
      <polygon id="_37" class="fil22" points="15.24,12.51 15.3,12.45 20.89,18.08 20.83,18.15 "/>
      <polygon id="_38" class="fil22" points="15.28,12.47 15.35,12.4 20.94,18.04 20.87,18.11 "/>
      <polygon id="_39" class="fil23" points="15.33,12.42 15.39,12.36 20.98,17.99 20.92,18.06 "/>
      <polygon id="_40" class="fil23" points="15.37,12.38 15.44,12.31 21.03,17.95 20.96,18.02 "/>
      <polygon id="_41" class="fil24" points="15.42,12.33 15.48,12.27 21.07,17.9 21.01,17.97 "/>
      <polygon id="_42" class="fil25" points="15.46,12.29 15.53,12.22 21.12,17.86 21.05,17.93 "/>
      <polygon id="_43" class="fil25" points="15.51,12.24 15.57,12.18 21.16,17.81 21.1,17.88 "/>
      <polygon id="_44" class="fil26" points="15.55,12.2 15.62,12.13 21.21,17.77 21.14,17.84 "/>
      <polygon id="_45" class="fil26" points="15.6,12.16 15.66,12.09 21.25,17.73 21.19,17.79 "/>
      <polygon id="_46" class="fil27" points="15.64,12.11 15.71,12.04 21.3,17.68 21.23,17.75 "/>
      <polygon id="_47" class="fil28" points="15.69,12.07 15.76,12 21.34,17.64 21.28,17.7 "/>
      <polygon id="_48" class="fil28" points="15.73,12.02 15.8,11.95 21.39,17.59 21.32,17.66 "/>
      <polygon id="_49" class="fil29" points="15.78,11.98 15.85,11.91 21.43,17.55 21.37,17.61 "/>
      <polygon id="_50" class="fil29" points="15.82,11.93 15.89,11.86 21.48,17.5 21.41,17.57 "/>
      <polygon id="_51" class="fil30" points="15.87,11.89 15.94,11.82 21.52,17.46 21.46,17.52 "/>
      <polygon id="_52" class="fil30" points="15.91,11.84 15.98,11.78 21.57,17.41 21.5,17.48 "/>
      <polygon id="_53" class="fil31" points="15.96,11.8 16.03,11.73 21.61,17.37 21.55,17.43 "/>
      <polygon id="_54" class="fil32" points="16,11.75 16.07,11.69 21.66,17.32 21.59,17.39 "/>
      <polygon id="_55" class="fil32" points="16.05,11.71 16.12,11.64 21.7,17.28 21.64,17.35 "/>
      <polygon id="_56" class="fil33" points="16.09,11.66 16.16,11.6 21.75,17.23 21.68,17.3 "/>
      <polygon id="_57" class="fil33" points="16.14,11.62 16.21,11.55 21.8,17.19 21.73,17.26 "/>
      <polygon id="_58" class="fil34" points="16.18,11.57 16.25,11.51 21.84,17.14 21.77,17.21 "/>
      <polygon id="_59" class="fil34" points="16.23,11.53 16.3,11.46 21.89,17.1 21.82,17.17 "/>
      <polygon id="_60" class="fil35" points="16.27,11.48 16.34,11.42 21.93,17.05 21.86,17.12 "/>
      <polygon id="_61" class="fil36" points="16.32,11.44 16.39,11.37 21.98,17.01 21.91,17.08 "/>
      <polygon id="_62" class="fil36" points="16.36,11.4 16.43,11.33 22.02,16.97 21.95,17.03 "/>
      <polygon id="_63" class="fil37" points="16.41,11.35 16.48,11.28 22.07,16.92 22,16.99 "/>
      <polygon id="_64" class="fil37" points="16.45,11.31 16.52,11.24 22.11,16.88 22.04,16.94 "/>
      <polygon id="_65" class="fil38" points="16.5,11.26 16.57,11.19 22.16,16.83 22.09,16.9 "/>
      <polygon id="_66" class="fil38" points="16.54,11.22 16.61,11.15 22.2,16.79 22.13,16.85 "/>
      <polygon id="_67" class="fil39" points="16.59,11.17 16.66,11.1 22.25,16.74 22.18,16.81 "/>
      <polygon id="_68" class="fil40" points="16.63,11.13 16.7,11.06 22.29,16.7 22.22,16.76 "/>
      <polygon id="_69" class="fil40" points="16.68,11.08 16.75,11.01 22.34,16.65 22.27,16.72 "/>
      <polygon id="_70" class="fil41" points="16.72,11.04 16.79,10.97 22.38,16.61 22.31,16.67 "/>
      <polygon id="_71" class="fil41" points="16.77,10.99 16.84,10.93 22.43,16.56 22.36,16.63 "/>
      <polygon id="_72" class="fil42" points="16.82,10.95 16.88,10.88 22.47,16.52 22.4,16.58 "/>
      <polygon id="_73" class="fil42" points="16.86,10.9 16.93,10.84 22.52,16.47 22.45,16.54 "/>
      <polygon id="_74" class="fil43" points="16.91,10.86 16.97,10.79 22.56,16.43 22.49,16.5 "/>
      <polygon id="_75" class="fil44" points="16.95,10.81 17.02,10.75 22.61,16.38 22.54,16.45 "/>
      <polygon id="_76" class="fil44" points="17,10.77 17.06,10.7 22.65,16.34 22.58,16.41 "/>
      <polygon id="_77" class="fil45" points="17.04,10.72 17.11,10.66 22.7,16.29 22.63,16.36 "/>
      <polygon id="_78" class="fil45" points="17.09,10.68 17.15,10.61 22.74,16.25 22.67,16.32 "/>
      <polygon id="_79" class="fil46" points="17.13,10.63 17.2,10.57 22.79,16.2 22.72,16.27 "/>
      <polygon id="_80" class="fil46" points="17.18,10.59 17.24,10.52 22.83,16.16 22.77,16.23 "/>
      <polygon id="_81" class="fil47" points="17.22,10.55 17.29,10.48 22.88,16.12 22.81,16.18 "/>
      <polygon id="_82" class="fil48" points="17.27,10.5 17.33,10.43 22.92,16.07 22.86,16.14 "/>
      <polygon id="_83" class="fil48" points="17.31,10.46 17.38,10.39 22.97,16.03 22.9,16.09 "/>
      <polygon id="_84" class="fil49" points="17.36,10.41 17.42,10.34 23.01,15.98 22.95,16.05 "/>
      <polygon id="_85" class="fil49" points="17.4,10.37 17.47,10.3 23.06,15.94 22.99,16 "/>
      <polygon id="_86" class="fil50" points="17.45,10.32 17.51,10.25 23.1,15.89 23.04,15.96 "/>
      <polygon id="_87" class="fil51" points="17.49,10.28 17.56,10.21 23.15,15.85 23.08,15.91 "/>
      <polygon id="_88" class="fil51" points="17.54,10.23 17.6,10.16 23.19,15.8 23.13,15.87 "/>
      <polygon id="_89" class="fil52" points="17.58,10.19 17.65,10.12 23.24,15.76 23.17,15.82 "/>
      <polygon id="_90" class="fil52" points="17.63,10.14 17.69,10.08 23.28,15.71 23.22,15.78 "/>
      <polygon id="_91" class="fil53" points="17.67,10.1 17.74,10.03 23.33,15.67 23.26,15.73 "/>
      <polygon id="_92" class="fil53" points="17.72,10.05 17.79,9.99 23.37,15.62 23.31,15.69 "/>
      <polygon id="_93" class="fil54" points="17.76,10.01 17.83,9.94 23.42,15.58 23.35,15.65 "/>
      <polygon id="_94" class="fil55" points="17.81,9.96 17.88,9.9 23.46,15.53 23.4,15.6 "/>
      <polygon id="_95" class="fil55" points="17.85,9.92 17.92,9.85 23.51,15.49 23.44,15.56 "/>
      <polygon id="_96" class="fil56" points="17.9,9.87 17.97,9.81 23.55,15.44 23.49,15.51 "/>
      <polygon id="_97" class="fil56" points="17.94,9.83 18.01,9.76 23.6,15.4 23.53,15.47 "/>
      <polygon id="_98" class="fil57" points="17.99,9.78 18.06,9.72 23.64,15.35 23.58,15.42 "/>
      <polygon id="_99" class="fil57" points="18.03,9.74 18.1,9.67 23.69,15.31 23.62,15.38 "/>
      <polygon id="_100" class="fil58" points="18.08,9.7 18.15,9.63 23.74,15.27 23.67,15.33 "/>
      <polygon id="_101" class="fil57" points="18.12,9.65 18.19,9.58 23.78,15.22 23.71,15.29 "/>
      <polygon id="_102" class="fil57" points="18.17,9.61 18.24,9.54 23.83,15.18 23.76,15.24 "/>
      <polygon id="_103" class="fil56" points="18.21,9.56 18.28,9.49 23.87,15.13 23.8,15.2 "/>
      <polygon id="_104" class="fil56" points="18.26,9.52 18.33,9.45 23.92,15.09 23.85,15.15 "/>
      <polygon id="_105" class="fil55" points="18.3,9.47 18.37,9.4 23.96,15.04 23.89,15.11 "/>
      <polygon id="_106" class="fil55" points="18.35,9.43 18.42,9.36 24.01,15 23.94,15.06 "/>
      <polygon id="_107" class="fil54" points="18.39,9.38 18.46,9.31 24.05,14.95 23.98,15.02 "/>
      <polygon id="_108" class="fil53" points="18.44,9.34 18.51,9.27 24.1,14.91 24.03,14.97 "/>
      <polygon id="_109" class="fil53" points="18.48,9.29 18.55,9.23 24.14,14.86 24.07,14.93 "/>
      <polygon id="_110" class="fil52" points="18.53,9.25 18.6,9.18 24.19,14.82 24.12,14.88 "/>
      <polygon id="_111" class="fil52" points="18.57,9.2 18.64,9.14 24.23,14.77 24.16,14.84 "/>
      <polygon id="_112" class="fil51" points="18.62,9.16 18.69,9.09 24.28,14.73 24.21,14.8 "/>
      <polygon id="_113" class="fil51" points="18.66,9.11 18.73,9.05 24.32,14.68 24.25,14.75 "/>
      <polygon id="_114" class="fil50" points="18.71,9.07 18.78,9 24.37,14.64 24.3,14.71 "/>
      <polygon id="_115" class="fil49" points="18.76,9.02 18.82,8.96 24.41,14.59 24.34,14.66 "/>
      <polygon id="_116" class="fil49" points="18.8,8.98 18.87,8.91 24.46,14.55 24.39,14.62 "/>
      <polygon id="_117" class="fil48" points="18.85,8.93 18.91,8.87 24.5,14.5 24.43,14.57 "/>
      <polygon id="_118" class="fil48" points="18.89,8.89 18.96,8.82 24.55,14.46 24.48,14.53 "/>
      <polygon id="_119" class="fil47" points="18.94,8.85 19,8.78 24.59,14.42 24.52,14.48 "/>
      <polygon id="_120" class="fil46" points="18.98,8.8 19.05,8.73 24.64,14.37 24.57,14.44 "/>
      <polygon id="_121" class="fil46" points="19.03,8.76 19.09,8.69 24.68,14.33 24.62,14.39 "/>
      <polygon id="_122" class="fil45" points="19.07,8.71 19.14,8.64 24.73,14.28 24.66,14.35 "/>
      <polygon id="_123" class="fil45" points="19.12,8.67 19.18,8.6 24.77,14.24 24.71,14.3 "/>
      <polygon id="_124" class="fil44" points="19.16,8.62 19.23,8.55 24.82,14.19 24.75,14.26 "/>
      <polygon id="_125" class="fil44" points="19.21,8.58 19.27,8.51 24.86,14.15 24.8,14.21 "/>
      <polygon id="_126" class="fil43" points="19.25,8.53 19.32,8.47 24.91,14.1 24.84,14.17 "/>
      <polygon id="_127" class="fil42" points="19.3,8.49 19.36,8.42 24.95,14.06 24.89,14.12 "/>
      <polygon id="_128" class="fil42" points="19.34,8.44 19.41,8.38 25,14.01 24.93,14.08 "/>
      <polygon id="_129" class="fil41" points="19.39,8.4 19.45,8.33 25.04,13.97 24.98,14.04 "/>
      <polygon id="_130" class="fil41" points="19.43,8.35 19.5,8.29 25.09,13.92 25.02,13.99 "/>
      <polygon id="_131" class="fil40" points="19.48,8.31 19.54,8.24 25.13,13.88 25.07,13.95 "/>
      <polygon id="_132" class="fil40" points="19.52,8.26 19.59,8.2 25.18,13.83 25.11,13.9 "/>
      <polygon id="_133" class="fil39" points="19.57,8.22 19.63,8.15 25.22,13.79 25.16,13.86 "/>
      <polygon id="_134" class="fil38" points="19.61,8.17 19.68,8.11 25.27,13.74 25.2,13.81 "/>
      <polygon id="_135" class="fil38" points="19.66,8.13 19.73,8.06 25.31,13.7 25.25,13.77 "/>
      <polygon id="_136" class="fil37" points="19.7,8.08 19.77,8.02 25.36,13.65 25.29,13.72 "/>
      <polygon id="_137" class="fil37" points="19.75,8.04 19.82,7.97 25.4,13.61 25.34,13.68 "/>
      <polygon id="_138" class="fil36" points="19.79,8 19.86,7.93 25.45,13.57 25.38,13.63 "/>
      <polygon id="_139" class="fil36" points="19.84,7.95 19.91,7.88 25.49,13.52 25.43,13.59 "/>
      <polygon id="_140" class="fil35" points="19.88,7.91 19.95,7.84 25.54,13.48 25.47,13.54 "/>
      <polygon id="_141" class="fil34" points="19.93,7.86 20,7.79 25.59,13.43 25.52,13.5 "/>
      <polygon id="_142" class="fil34" points="19.97,7.82 20.04,7.75 25.63,13.39 25.56,13.45 "/>
      <polygon id="_143" class="fil33" points="20.02,7.77 20.09,7.7 25.68,13.34 25.61,13.41 "/>
      <polygon id="_144" class="fil33" points="20.06,7.73 20.13,7.66 25.72,13.3 25.65,13.36 "/>
      <polygon id="_145" class="fil32" points="20.11,7.68 20.18,7.62 25.77,13.25 25.7,13.32 "/>
      <polygon id="_146" class="fil32" points="20.15,7.64 20.22,7.57 25.81,13.21 25.74,13.27 "/>
      <polygon id="_147" class="fil31" points="20.2,7.59 20.27,7.53 25.86,13.16 25.79,13.23 "/>
      <polygon id="_148" class="fil30" points="20.24,7.55 20.31,7.48 25.9,13.12 25.83,13.19 "/>
      <polygon id="_149" class="fil30" points="20.29,7.5 20.36,7.44 25.95,13.07 25.88,13.14 "/>
      <polygon id="_150" class="fil29" points="20.33,7.46 20.4,7.39 25.99,13.03 25.92,13.1 "/>
      <polygon id="_151" class="fil29" points="20.38,7.41 20.45,7.35 26.04,12.98 25.97,13.05 "/>
      <polygon id="_152" class="fil28" points="20.42,7.37 20.49,7.3 26.08,12.94 26.01,13.01 "/>
      <polygon id="_153" class="fil28" points="20.47,7.32 20.54,7.26 26.13,12.89 26.06,12.96 "/>
      <polygon id="_154" class="fil27" points="20.51,7.28 20.58,7.21 26.17,12.85 26.1,12.92 "/>
      <polygon id="_155" class="fil26" points="20.56,7.23 20.63,7.17 26.22,12.8 26.15,12.87 "/>
      <polygon id="_156" class="fil26" points="20.61,7.19 20.67,7.12 26.26,12.76 26.19,12.83 "/>
      <polygon id="_157" class="fil25" points="20.65,7.15 20.72,7.08 26.31,12.72 26.24,12.78 "/>
      <polygon id="_158" class="fil25" points="20.7,7.1 20.76,7.03 26.35,12.67 26.28,12.74 "/>
      <polygon id="_159" class="fil24" points="20.74,7.06 20.81,6.99 26.4,12.63 26.33,12.69 "/>
      <polygon id="_160" class="fil23" points="20.79,7.01 20.85,6.94 26.44,12.58 26.37,12.65 "/>
      <polygon id="_161" class="fil23" points="20.83,6.97 20.9,6.9 26.49,12.54 26.42,12.6 "/>
      <polygon id="_162" class="fil22" points="20.88,6.92 20.94,6.85 26.53,12.49 26.46,12.56 "/>
      <polygon id="_163" class="fil22" points="20.92,6.88 20.99,6.81 26.58,12.45 26.51,12.51 "/>
      <polygon id="_164" class="fil21" points="20.97,6.83 21.03,6.77 26.62,12.4 26.56,12.47 "/>
      <polygon id="_165" class="fil21" points="21.01,6.79 21.08,6.72 26.67,12.36 26.6,12.42 "/>
      <polygon id="_166" class="fil20" points="21.06,6.74 21.12,6.68 26.71,12.31 26.65,12.38 "/>
      <polygon id="_167" class="fil19" points="21.1,6.7 21.17,6.63 26.76,12.27 26.69,12.34 "/>
      <polygon id="_168" class="fil19" points="21.15,6.65 21.21,6.59 26.8,12.22 26.74,12.29 "/>
      <polygon id="_169" class="fil18" points="21.19,6.61 21.26,6.54 26.85,12.18 26.78,12.25 "/>
      <polygon id="_170" class="fil18" points="21.24,6.56 21.3,6.5 26.89,12.13 26.83,12.2 "/>
      <polygon id="_171" class="fil17" points="21.28,6.52 21.35,6.45 26.94,12.09 26.87,12.16 "/>
      <polygon id="_172" class="fil17" points="21.33,6.47 21.39,6.41 26.98,12.04 26.92,12.11 "/>
      <polygon id="_173" class="fil16" points="21.37,6.43 21.44,6.36 27.03,12 26.96,12.07 "/>
      <polygon id="_174" class="fil15" points="21.42,6.38 21.48,6.32 27.07,11.95 27.01,12.02 "/>
      <polygon id="_175" class="fil15" points="21.46,6.34 21.53,6.27 27.12,11.91 27.05,11.98 "/>
      <polygon id="_176" class="fil14" points="21.51,6.3 21.58,6.23 27.16,11.87 27.1,11.93 "/>
      <polygon id="_177" class="fil14" points="21.55,6.25 21.62,6.18 27.21,11.82 27.14,11.89 "/>
      <polygon id="_178" class="fil13" points="21.6,6.21 21.67,6.14 27.25,11.78 27.19,11.84 "/>
      <polygon id="_179" class="fil13" points="21.64,6.16 21.71,6.09 27.3,11.73 27.23,11.8 "/>
      <polygon id="_180" class="fil12" points="21.69,6.12 21.76,6.05 27.34,11.69 27.28,11.75 "/>
      <polygon id="_181" class="fil11" points="21.73,6.07 21.8,6 27.39,11.64 27.32,11.71 "/>
      <polygon id="_182" class="fil11" points="21.78,6.03 21.85,5.96 27.43,11.6 27.37,11.66 "/>
      <polygon id="_183" class="fil10" points="21.82,5.98 21.89,5.92 27.48,11.55 27.41,11.62 "/>
      <polygon id="_184" class="fil10" points="21.87,5.94 21.94,5.87 27.53,11.51 27.46,11.57 "/>
      <polygon id="_185" class="fil9" points="21.91,5.89 21.98,5.83 27.57,11.46 27.5,11.53 "/>
      <polygon id="_186" class="fil9" points="21.96,5.85 22.03,5.78 27.62,11.42 27.55,11.49 "/>
      <polygon id="_187" class="fil8" points="22,5.8 22.07,5.74 27.66,11.37 27.59,11.44 "/>
      <polygon id="_188" class="fil7" points="22.05,5.76 22.12,5.69 27.71,11.33 27.64,11.4 "/>
      <polygon id="_189" class="fil7" points="22.09,5.71 22.16,5.65 27.75,11.28 27.68,11.35 "/>
      <polygon id="_190" class="fil6" points="22.14,5.67 22.21,5.6 27.8,11.24 27.73,11.31 "/>
      <polygon id="_191" class="fil6" points="22.18,5.62 22.25,5.56 27.84,11.19 27.77,11.26 "/>
      <polygon id="_192" class="fil5" points="22.23,5.58 22.3,5.51 27.89,11.15 27.82,11.22 "/>
      <polygon id="_193" class="fil4" points="22.27,5.53 22.34,5.47 27.93,11.11 27.86,11.17 "/>
      <polygon id="_194" class="fil4" points="22.32,5.49 22.39,5.42 27.98,11.06 27.91,11.13 "/>
      <polygon id="_195" class="fil3" points="22.36,5.45 22.43,5.38 28.02,11.02 27.95,11.08 "/>
      <polygon id="_196" class="fil3" points="22.41,5.4 22.48,5.33 28.07,10.97 28,11.04 "/>
      <polygon id="_197" class="fil2" points="22.45,5.36 22.52,5.29 28.11,10.93 28.04,10.99 "/>
      <polygon id="_198" class="fil2" points="22.5,5.31 22.57,5.24 28.16,10.88 28.09,10.95 "/>
      <polygon id="_199" class="fil1" points="22.55,5.27 22.61,5.2 28.2,10.84 28.13,10.9 "/>
      <polygon id="_200" class="fil0" points="22.59,5.22 22.66,5.15 28.25,10.79 28.18,10.86 "/>
      <polygon id="_201" class="fil0" points="22.64,5.18 22.7,5.11 28.29,10.75 28.22,10.81 "/>
      <polygon id="_202" class="fil59" points="22.68,5.13 22.75,5.07 28.34,10.7 28.27,10.77 "/>
      <polygon id="_203" class="fil59" points="22.73,5.09 22.79,5.02 28.38,10.66 28.31,10.72 "/>
      <polygon id="_204" class="fil60" points="22.77,5.04 22.84,4.98 28.43,10.61 28.36,10.68 "/>
      <polygon id="_205" class="fil60" points="22.82,5 22.88,4.93 28.47,10.57 28.4,10.64 "/>
      <polygon id="_206" class="fil61" points="22.86,4.95 22.93,4.89 28.52,10.52 28.45,10.59 "/>
      <polygon id="_207" class="fil62" points="22.91,4.91 22.97,4.84 28.56,10.48 28.5,10.55 "/>
      <polygon id="_208" class="fil62" points="22.95,4.86 23.02,4.8 28.61,10.43 28.54,10.5 "/>
      <polygon id="_209" class="fil63" points="23,4.82 23.06,4.75 28.65,10.39 28.59,10.46 "/>
      <polygon id="_210" class="fil63" points="23.04,4.77 23.11,4.71 28.7,10.34 28.63,10.41 "/>
      <polygon id="_211" class="fil64" points="23.09,4.73 23.15,4.66 28.74,10.3 28.68,10.37 "/>
      <polygon id="_212" class="fil64" points="23.13,4.69 23.2,4.62 28.79,10.26 28.72,10.32 "/>
      <polygon id="_213" class="fil65" points="23.18,4.64 23.24,4.57 28.83,10.21 28.77,10.28 "/>
      <polygon id="_214" class="fil66" points="23.22,4.6 23.29,4.53 28.88,10.17 28.81,10.23 "/>
      <polygon id="_215" class="fil66" points="23.27,4.55 23.33,4.48 28.92,10.12 28.86,10.19 "/>
      <polygon id="_216" class="fil67" points="23.31,4.51 23.38,4.44 28.97,10.08 28.9,10.14 "/>
      <polygon id="_217" class="fil67" points="23.36,4.46 23.42,4.39 29.01,10.03 28.95,10.1 "/>
      <polygon id="_218" class="fil68" points="23.4,4.42 23.47,4.35 29.06,9.99 28.99,10.05 "/>
      <polygon id="_219" class="fil68" points="23.45,4.37 23.52,4.3 29.1,9.94 29.04,10.01 "/>
      <polygon id="_220" class="fil69" points="23.49,4.33 23.56,4.26 29.15,9.9 29.08,9.96 "/>
      <polygon id="_221" class="fil70" points="23.54,4.28 23.61,4.22 29.19,9.85 29.13,9.92 "/>
      <polygon id="_222" class="fil70" points="23.58,4.24 23.65,4.17 29.24,9.81 29.17,9.87 "/>
      <polygon id="_223" class="fil71" points="23.63,4.19 23.7,4.13 29.28,9.76 29.22,9.83 "/>
      <polygon id="_224" class="fil71" points="23.67,4.15 23.74,4.08 29.33,9.72 29.26,9.79 "/>
      <polygon id="_225" class="fil72" points="23.72,4.1 23.79,4.04 29.37,9.67 29.31,9.74 "/>
      <polygon id="_226" class="fil72" points="23.76,4.06 23.83,3.99 29.42,9.63 29.35,9.7 "/>
      <polygon id="_227" class="fil73" points="23.81,4.01 23.88,3.95 29.46,9.58 29.4,9.65 "/>
      <polygon id="_228" class="fil74" points="23.85,3.97 23.92,3.9 29.51,9.54 29.44,9.61 "/>
      <polygon id="_229" class="fil74" points="23.9,3.92 23.97,3.86 29.56,9.49 29.49,9.56 "/>
      <polygon id="_230" class="fil75" points="23.94,3.88 24.01,3.81 29.6,9.45 29.53,9.52 "/>
      <polygon id="_231" class="fil75" points="23.99,3.84 24.06,3.77 29.65,9.41 29.58,9.47 "/>
      <polygon id="_232" class="fil76" points="24.03,3.79 24.1,3.72 29.69,9.36 29.62,9.43 "/>
      <polygon id="_233" class="fil77" points="24.08,3.75 24.15,3.68 29.74,9.32 29.67,9.38 "/>
      <polygon id="_234" class="fil77" points="24.12,3.7 24.19,3.63 29.78,9.27 29.71,9.34 "/>
      <polygon id="_235" class="fil78" points="24.17,3.66 24.24,3.59 29.83,9.23 29.76,9.29 "/>
      <polygon id="_236" class="fil78" points="24.21,3.61 24.28,3.54 29.87,9.18 29.8,9.25 "/>
      <polygon id="_237" class="fil79" points="24.26,3.57 24.33,3.5 29.92,9.14 29.85,9.2 "/>
      <polygon id="_238" class="fil79" points="24.3,3.52 24.37,3.45 29.96,9.09 29.89,9.16 "/>
      <polygon id="_239" class="fil80" points="24.35,3.48 24.42,3.41 30.01,9.05 29.94,9.11 "/>
      <polygon id="_240" class="fil81" points="24.39,3.43 24.46,3.37 30.05,9 29.98,9.07 "/>
      <polygon id="_241" class="fil81" points="24.44,3.39 24.51,3.32 30.1,8.96 30.03,9.02 "/>
      <polygon id="_242" class="fil82" points="24.49,3.34 24.55,3.28 30.14,8.91 30.07,8.98 "/>
      <polygon id="_243" class="fil82" points="24.53,3.3 24.6,3.23 30.19,8.87 30.12,8.94 "/>
      <polygon id="_244" class="fil83" points="24.58,3.25 24.64,3.19 30.23,8.82 30.16,8.89 "/>
      <polygon id="_245" class="fil83" points="24.62,3.21 24.69,3.14 30.28,8.78 30.21,8.85 "/>
      <polygon id="_246" class="fil84" points="24.67,3.16 24.73,3.1 30.32,8.73 30.25,8.8 "/>
      <polygon id="_247" class="fil85" points="24.71,3.12 24.78,3.05 30.37,8.69 30.3,8.76 "/>
      <polygon id="_248" class="fil85" points="24.76,3.07 24.82,3.01 30.41,8.64 30.35,8.71 "/>
      <polygon id="_249" class="fil86" points="24.8,3.03 24.87,2.96 30.46,8.6 30.39,8.67 "/>
      <polygon id="_250" class="fil86" points="24.85,2.99 24.91,2.92 30.5,8.56 30.44,8.62 "/>
      <polygon id="_251" class="fil87" points="24.89,2.94 24.96,2.87 30.55,8.51 30.48,8.58 "/>
      <polygon id="_252" class="fil87" points="24.94,2.9 25,2.83 30.59,8.47 30.53,8.53 "/>
      <polygon id="_253" class="fil88" points="24.98,2.85 25.05,2.78 30.64,8.42 30.57,8.49 "/>
      <polygon id="_254" class="fil89" points="25.03,2.81 25.09,2.74 30.68,8.38 30.62,8.44 "/>
      <polygon id="_255" class="fil89" points="25.07,2.76 25.14,2.69 30.73,8.33 30.66,8.4 "/>
      <polygon id="_256" class="fil90" points="25.12,2.72 25.18,2.65 30.77,8.29 30.71,8.35 "/>
      <polygon id="_257" class="fil91" points="25.16,2.67 25.23,2.6 30.82,8.24 30.75,8.31 "/>
      <polygon id="_258" class="fil92" points="25.21,2.63 25.27,2.56 30.86,8.2 30.8,8.26 "/>
      <polygon id="_259" class="fil93" points="25.25,2.58 25.32,2.52 30.91,8.15 30.84,8.22 "/>
      <polygon id="_260" class="fil94" points="25.3,2.54 25.36,2.47 30.95,8.11 30.89,8.17 "/>
      <polygon id="_261" class="fil94" points="25.34,2.49 25.41,2.43 31,8.06 30.93,8.13 "/>
      <polygon id="_262" class="fil95" points="25.39,2.45 25.46,2.38 31.04,8.02 30.98,8.09 "/>
      <polygon id="_263" class="fil96" points="25.43,2.4 25.5,2.34 31.09,7.97 31.02,8.04 "/>
      <polygon id="_264" class="fil97" points="25.48,2.36 25.55,2.29 31.13,7.93 31.07,8 "/>
      <polygon id="_265" class="fil98" points="25.52,2.31 25.59,2.25 31.18,7.88 31.11,7.95 "/>
      <polygon id="_266" class="fil99" points="25.57,2.27 25.64,2.2 31.22,7.84 31.16,7.91 "/>
      <polygon id="_267" class="fil100" points="25.61,2.22 25.68,2.16 31.27,7.79 31.2,7.86 "/>
      <polygon id="_268" class="fil101" points="25.66,2.18 25.73,2.11 31.32,7.75 31.25,7.82 "/>
      <polygon id="_269" class="fil102" points="25.7,2.14 25.77,2.07 31.36,7.71 31.29,7.77 "/>
      <polygon id="_270" class="fil103" points="25.75,2.09 25.82,2.02 31.41,7.66 31.34,7.73 "/>
      <polygon id="_271" class="fil103" points="25.79,2.05 25.86,1.98 31.45,7.62 31.38,7.68 "/>
      <polygon id="_272" class="fil104" points="25.84,2 25.91,1.93 31.5,7.57 31.43,7.64 "/>
      <polygon id="_273" class="fil105" points="25.88,1.96 25.95,1.89 31.54,7.53 31.47,7.59 "/>
      <polygon id="_274" class="fil106" points="25.93,1.91 26,1.84 31.59,7.48 31.52,7.55 "/>
      <polygon id="_275" class="fil107" points="25.97,1.87 26.04,1.8 31.63,7.44 31.56,7.5 "/>
      <polygon id="_276" class="fil108" points="26.02,1.82 26.09,1.76 31.68,7.39 31.61,7.46 "/>
      <polygon id="_277" class="fil109" points="26.06,1.78 26.13,1.71 31.72,7.35 31.65,7.41 "/>
      <polygon id="_278" class="fil110" points="26.11,1.73 26.18,1.67 31.77,7.3 31.7,7.37 "/>
      <polygon id="_279" class="fil111" points="26.15,1.69 26.22,1.62 31.81,7.26 31.74,7.33 "/>
      <polygon id="_280" class="fil112" points="26.2,1.64 26.27,1.58 31.86,7.21 31.79,7.28 "/>
      <polygon id="_281" class="fil112" points="26.24,1.6 26.31,1.53 31.9,7.17 31.83,7.24 "/>
      <polygon id="_282" class="fil113" points="26.29,1.55 26.36,1.49 31.95,7.12 31.88,7.19 "/>
      <polygon id="_283" class="fil114" points="26.34,1.51 26.4,1.44 31.99,7.08 31.92,7.15 "/>
      <polygon id="_284" class="fil115" points="26.38,1.46 26.45,1.4 32.04,7.03 31.97,7.1 "/>
      <polygon id="_285" class="fil116" points="26.43,1.42 26.49,1.35 32.08,6.99 32.01,7.06 "/>
      <polygon id="_286" class="fil117" points="26.47,1.37 26.54,1.31 32.13,6.94 32.06,7.01 "/>
      <polygon id="_287" class="fil118" points="26.52,1.33 26.58,1.26 32.17,6.9 32.1,6.97 "/>
      <polygon id="_288" class="fil119" points="26.56,1.29 26.63,1.22 32.22,6.86 32.15,6.92 "/>
      <polygon id="_289" class="fil120" points="26.61,1.24 26.67,1.17 32.26,6.81 32.19,6.88 "/>
      <polygon id="_290" class="fil121" points="26.65,1.2 26.72,1.13 32.31,6.77 32.24,6.83 "/>
      <polygon id="_291" class="fil121" points="26.7,1.15 26.76,1.08 32.35,6.72 32.29,6.79 "/>
      <polygon id="_292" class="fil122" points="26.74,1.11 26.81,1.04 32.4,6.68 32.33,6.74 "/>
      <polygon id="_293" class="fil123" points="26.79,1.06 26.85,0.99 32.44,6.63 32.38,6.7 "/>
      <polygon id="_294" class="fil124" points="26.83,1.02 26.9,0.95 32.49,6.59 32.42,6.65 "/>
      <polygon id="_295" class="fil125" points="26.88,0.97 26.94,0.91 32.53,6.54 32.47,6.61 "/>
      <polygon id="_296" class="fil126" points="26.92,0.93 26.99,0.86 32.58,6.5 32.51,6.56 "/>
      <polygon id="_297" class="fil127" points="26.97,0.88 27.03,0.82 32.62,6.45 32.56,6.52 "/>
      <polygon id="_298" class="fil128" points="27.01,0.84 27.08,0.77 32.67,6.41 32.6,6.48 "/>
      <polygon id="_299" class="fil129" points="27.06,0.79 27.12,0.73 32.71,6.36 32.65,6.43 "/>
      <polygon id="_300" class="fil130" points="27.1,0.75 27.17,0.68 32.76,6.32 32.69,6.39 "/>
      <polygon id="_301" class="fil130" points="27.15,0.7 27.21,0.64 32.8,6.27 32.74,6.34 "/>
      <polygon id="_302" class="fil131" points="27.19,0.66 27.26,0.59 32.85,6.23 32.78,6.3 "/>
      <polygon id="_303" class="fil132" points="27.24,0.61 27.31,0.55 32.89,6.18 32.83,6.25 "/>
      <polygon id="_304" class="fil133" points="27.28,0.57 27.35,0.5 32.94,6.14 32.87,6.21 "/>
      <polygon id="_305" class="fil134" points="27.33,0.52 27.4,0.46 32.98,6.09 32.92,6.16 "/>
      <polygon id="_306" class="fil135" points="27.37,0.48 27.44,0.41 33.03,6.05 32.96,6.12 "/>
      <polygon id="_307" class="fil136" points="27.42,0.44 27.49,0.37 33.07,6.01 33.01,6.07 "/>
      <polygon id="_308" class="fil137" points="27.46,0.39 27.53,0.32 33.12,5.96 33.05,6.03 "/>
      <polygon id="_309" class="fil138" points="27.51,0.35 27.58,0.28 33.16,5.92 33.1,5.98 "/>
      <polygon id="_310" class="fil139" points="27.55,0.3 27.62,0.23 33.21,5.87 33.14,5.94 "/>
      <polygon id="_311" class="fil139" points="27.6,0.26 27.67,0.19 33.25,5.83 33.19,5.89 "/>
      <polygon id="_312" class="fil140" points="27.64,0.21 27.71,0.14 33.3,5.78 33.23,5.85 "/>
      <polygon id="_313" class="fil141" points="27.69,0.17 27.76,0.1 33.35,5.74 33.28,5.8 "/>
      <polygon id="_314" class="fil142" points="27.73,0.12 27.8,0.06 33.39,5.69 33.32,5.76 "/>
      <polygon id="_315" class="fil143" points="27.78,0.08 27.85,0.01 33.44,5.65 33.37,5.72 "/>
      <polygon id="_316" class="fil144" points="27.82,0.03 27.89,-0.03 33.48,5.6 33.41,5.67 "/>
      <polygon id="_317" class="fil145" points="27.87,-0.01 27.94,-0.08 33.53,5.56 33.46,5.63 "/>
      <polygon id="_318" class="fil146" points="27.91,-0.06 27.98,-0.12 33.57,5.51 33.5,5.58 "/>
      <polygon id="_319" class="fil147" points="27.96,-0.1 28.03,-0.17 33.62,5.47 33.55,5.54 "/>
      <polygon id="_320" class="fil148" points="28,-0.15 28.07,-0.21 33.66,5.42 33.59,5.49 "/>
      <polygon id="_321" class="fil148" points="28.05,-0.19 28.12,-0.26 33.71,5.38 33.64,5.45 "/>
      <polygon id="_322" class="fil149" points="28.09,-0.24 28.16,-0.3 33.75,5.33 33.68,5.4 "/>
      <polygon id="_323" class="fil150" points="28.14,-0.28 28.21,-0.35 33.8,5.29 33.73,5.36 "/>
      <polygon id="_324" class="fil151" points="28.18,-0.33 28.25,-0.39 33.84,5.24 33.77,5.31 "/>
      <polygon id="_325" class="fil152" points="28.23,-0.37 28.3,-0.44 33.89,5.2 33.82,5.27 "/>
      <polygon id="_326" class="fil153" points="28.28,-0.41 28.34,-0.48 33.93,5.16 33.86,5.22 "/>
      <polygon id="_327" class="fil154" points="28.32,-0.46 28.39,-0.53 33.98,5.11 33.91,5.18 "/>
      <polygon id="_328" class="fil155" points="28.37,-0.5 28.43,-0.57 34.02,5.07 33.95,5.13 "/>
      <polygon id="_329" class="fil156" points="28.41,-0.55 28.48,-0.62 34.07,5.02 34,5.09 "/>
      <polygon id="_330" class="fil157" points="28.46,-0.59 28.52,-0.66 34.11,4.98 34.04,5.04 "/>
      <polygon id="_331" class="fil157" points="28.5,-0.64 28.57,-0.71 34.16,4.93 34.09,5 "/>
      <polygon id="_332" class="fil158" points="28.55,-0.68 28.61,-0.75 34.2,4.89 34.13,4.95 "/>
      <polygon id="_333" class="fil159" points="28.59,-0.73 28.66,-0.79 34.25,4.84 34.18,4.91 "/>
      <polygon id="_334" class="fil160" points="28.64,-0.77 28.7,-0.84 34.29,4.8 34.22,4.87 "/>
      <polygon id="_335" class="fil161" points="28.68,-0.82 28.75,-0.88 34.34,4.75 34.27,4.82 "/>
      <polygon id="_336" class="fil162" points="28.73,-0.86 28.79,-0.93 34.38,4.71 34.32,4.78 "/>
      <polygon id="_337" class="fil163" points="28.77,-0.91 28.84,-0.97 34.43,4.66 34.36,4.73 "/>
      <polygon id="_338" class="fil164" points="28.82,-0.95 28.88,-1.02 34.47,4.62 34.41,4.69 "/>
      <polygon id="_339" class="fil165" points="28.86,-1 28.93,-1.06 34.52,4.57 34.45,4.64 "/>
      <polygon id="_340" class="fil166" points="28.91,-1.04 28.97,-1.11 34.56,4.53 34.5,4.6 "/>
      <polygon id="_341" class="fil166" points="28.95,-1.09 29.02,-1.15 34.61,4.48 34.54,4.55 "/>
      <polygon id="_342" class="fil167" points="29,-1.13 29.06,-1.2 34.65,4.44 34.59,4.51 "/>
      <polygon id="_343" class="fil168" points="29.04,-1.17 29.11,-1.24 34.7,4.4 34.63,4.46 "/>
      <polygon id="_344" class="fil169" points="29.09,-1.22 29.15,-1.29 34.74,4.35 34.68,4.42 "/>
      <polygon id="_345" class="fil170" points="29.13,-1.26 29.2,-1.33 34.79,4.31 34.72,4.37 "/>
      <polygon id="_346" class="fil171" points="29.18,-1.31 29.25,-1.38 34.83,4.26 34.77,4.33 "/>
      <polygon id="_347" class="fil172" points="29.22,-1.35 29.29,-1.42 34.88,4.22 34.81,4.28 "/>
      <polygon id="_348" class="fil173" points="29.27,-1.4 29.34,-1.47 34.92,4.17 34.86,4.24 "/>
      <polygon id="_349" class="fil174" points="29.31,-1.44 29.38,-1.51 34.97,4.13 34.9,4.19 "/>
      <polygon id="_350" class="fil175" points="29.36,-1.49 29.43,-1.56 35.01,4.08 34.95,4.15 "/>
      <polygon id="_351" class="fil175" points="29.4,-1.53 29.47,-1.6 35.06,4.04 34.99,4.1 "/>
      <polygon id="_352" class="fil176" points="29.45,-1.58 29.52,-1.64 35.11,3.99 35.04,4.06 "/>
      <polygon id="_353" class="fil177" points="29.49,-1.62 29.56,-1.69 35.15,3.95 35.08,4.02 "/>
      <polygon id="_354" class="fil178" points="29.54,-1.67 29.61,-1.73 35.19,3.9 35.13,3.97 "/>
      <polygon id="_355" class="fil179" points="29.58,-1.71 29.65,-1.78 35.24,3.86 35.17,3.93 "/>
      <polygon id="_356" class="fil178" points="29.63,-1.76 29.7,-1.82 35.29,3.81 35.22,3.88 "/>
      <polygon id="_357" class="fil177" points="29.67,-1.8 29.74,-1.87 35.33,3.77 35.26,3.84 "/>
      <polygon id="_358" class="fil176" points="29.72,-1.85 29.79,-1.91 35.38,3.72 35.31,3.79 "/>
      <polygon id="_359" class="fil175" points="29.76,-1.89 29.83,-1.96 35.42,3.68 35.35,3.75 "/>
      <polygon id="_360" class="fil175" points="29.81,-1.94 29.88,-2 35.47,3.63 35.4,3.7 "/>
      <polygon id="_361" class="fil174" points="29.85,-1.98 29.92,-2.05 35.51,3.59 35.44,3.66 "/>
      <polygon id="_362" class="fil173" points="29.9,-2.02 29.97,-2.09 35.56,3.55 35.49,3.61 "/>
      <polygon id="_363" class="fil172" points="29.94,-2.07 30.01,-2.14 35.6,3.5 35.53,3.57 "/>
      <polygon id="_364" class="fil171" points="29.99,-2.11 30.06,-2.18 35.65,3.46 35.58,3.52 "/>
      <polygon id="_365" class="fil170" points="30.03,-2.16 30.1,-2.23 35.69,3.41 35.62,3.48 "/>
      <polygon id="_366" class="fil169" points="30.08,-2.2 30.15,-2.27 35.74,3.37 35.67,3.43 "/>
      <polygon id="_367" class="fil168" points="30.12,-2.25 30.19,-2.32 35.78,3.32 35.71,3.39 "/>
      <polygon id="_368" class="fil167" points="30.17,-2.29 30.24,-2.36 35.83,3.28 35.76,3.34 "/>
      <polygon id="_369" class="fil166" points="30.21,-2.34 30.28,-2.41 35.87,3.23 35.8,3.3 "/>
      <polygon id="_370" class="fil166" points="30.26,-2.38 30.33,-2.45 35.92,3.19 35.85,3.25 "/>
      <polygon id="_371" class="fil165" points="30.31,-2.43 30.37,-2.49 35.96,3.14 35.89,3.21 "/>
      <polygon id="_372" class="fil164" points="30.35,-2.47 30.42,-2.54 36.01,3.1 35.94,3.17 "/>
      <polygon id="_373" class="fil163" points="30.4,-2.52 30.46,-2.58 36.05,3.05 35.98,3.12 "/>
      <polygon id="_374" class="fil162" points="30.44,-2.56 30.51,-2.63 36.1,3.01 36.03,3.08 "/>
      <polygon id="_375" class="fil161" points="30.49,-2.61 30.55,-2.67 36.14,2.96 36.08,3.03 "/>
      <polygon id="_376" class="fil160" points="30.53,-2.65 30.6,-2.72 36.19,2.92 36.12,2.99 "/>
      <polygon id="_377" class="fil159" points="30.58,-2.7 30.64,-2.76 36.23,2.87 36.17,2.94 "/>
      <polygon id="_378" class="fil158" points="30.62,-2.74 30.69,-2.81 36.28,2.83 36.21,2.9 "/>
      <polygon id="_379" class="fil157" points="30.67,-2.79 30.73,-2.85 36.32,2.79 36.26,2.85 "/>
      <polygon id="_380" class="fil157" points="30.71,-2.83 30.78,-2.9 36.37,2.74 36.3,2.81 "/>
      <polygon id="_381" class="fil156" points="30.76,-2.87 30.82,-2.94 36.41,2.7 36.35,2.76 "/>
      <polygon id="_382" class="fil155" points="30.8,-2.92 30.87,-2.99 36.46,2.65 36.39,2.72 "/>
      <polygon id="_383" class="fil154" points="30.85,-2.96 30.91,-3.03 36.5,2.61 36.44,2.67 "/>
      <polygon id="_384" class="fil153" points="30.89,-3.01 30.96,-3.08 36.55,2.56 36.48,2.63 "/>
      <polygon id="_385" class="fil152" points="30.94,-3.05 31,-3.12 36.59,2.52 36.53,2.58 "/>
      <polygon id="_386" class="fil151" points="30.98,-3.1 31.05,-3.17 36.64,2.47 36.57,2.54 "/>
      <polygon id="_387" class="fil150" points="31.03,-3.14 31.1,-3.21 36.68,2.43 36.62,2.49 "/>
      <polygon id="_388" class="fil149" points="31.07,-3.19 31.14,-3.26 36.73,2.38 36.66,2.45 "/>
      <polygon id="_389" class="fil148" points="31.12,-3.23 31.18,-3.3 36.77,2.34 36.71,2.4 "/>
      <polygon id="_390" class="fil148" points="31.16,-3.28 31.23,-3.34 36.82,2.29 36.75,2.36 "/>
      <polygon id="_391" class="fil147" points="31.21,-3.32 31.28,-3.39 36.86,2.25 36.8,2.32 "/>
      <polygon id="_392" class="fil146" points="31.25,-3.37 31.32,-3.43 36.91,2.2 36.84,2.27 "/>
      <polygon id="_393" class="fil145" points="31.3,-3.41 31.37,-3.48 36.95,2.16 36.89,2.23 "/>
      <polygon id="_394" class="fil144" points="31.34,-3.46 31.41,-3.52 37,2.11 36.93,2.18 "/>
      <polygon id="_395" class="fil143" points="31.39,-3.5 31.46,-3.57 37.05,2.07 36.98,2.14 "/>
      <polygon id="_396" class="fil142" points="31.43,-3.55 31.43,-3.54 37.01,2.1 37.02,2.09 "/>
     </g>
    </g>
    <polygon class="fil180" points="27.86,0 38.6,0 47.97,9.43 38.76,18.85 27.86,18.85 37.13,9.4 "/>
    <polygon class="fil180" points="20.12,0 9.37,0 0,9.43 9.21,18.85 20.12,18.85 10.84,9.4 "/>
   </g>
   <polygon class="fil181" points="52.17,13.04 52.17,5.83 58.83,5.83 58.83,7.39 53.75,7.39 53.75,8.65 57.84,8.65 57.84,10.21 53.75,10.21 53.75,13.04 "/>
   <polygon id="_1_0" class="fil181" points="59.41,13.04 59.41,5.83 66.07,5.83 66.07,7.39 60.99,7.39 60.99,8.65 65.08,8.65 65.08,10.21 60.99,10.21 60.99,11.48 66.07,11.48 66.07,13.04 "/>
   <polygon id="_2_1" class="fil181" points="67.08,13.04 67.08,5.82 68.63,5.82 68.63,11.48 74.29,11.48 74.29,13.04 "/>
   <polygon id="_3_2" class="fil181" points="74.62,13.04 74.62,5.83 76.15,5.83 76.15,13.04 "/>
   <path id="_4_3" class="fil181" d="M77.01 13.04l0 -7.2 5.72 0c0.27,0 0.52,0.06 0.75,0.2 0.22,0.13 0.4,0.31 0.54,0.54 0.13,0.22 0.2,0.47 0.2,0.74l0 1.86c0,0.27 -0.07,0.52 -0.2,0.74 -0.14,0.23 -0.32,0.41 -0.54,0.54 -0.23,0.14 -0.48,0.2 -0.75,0.2l-4.17 0.01 0 2.37 -1.55 0zm1.55 -3.94l4.09 0c0,0 0,0 0,0 0,0 0,0 0,0l0 -1.71c0,0 0,0 0,0 0,0 0,0 0,0l-4.09 0c0,0 0,0 0,0 0,0 0,0 0,0l0 1.71c0,0 0,0 0,0 0,0 0,0 0,0z"/>
   <polygon id="_5_4" class="fil181" points="84.95,13.04 84.95,5.83 91.61,5.83 91.61,7.39 86.53,7.39 86.53,8.65 90.62,8.65 90.62,10.21 86.53,10.21 86.53,11.48 91.61,11.48 91.61,13.04 "/>
   <path id="_6_5" class="fil181" d="M97.31 13.04c-0.27,0 -0.52,-0.07 -0.74,-0.2 -0.23,-0.14 -0.41,-0.32 -0.54,-0.54 -0.13,-0.22 -0.2,-0.47 -0.2,-0.74l0 -4.25c0,-0.27 0.07,-0.52 0.2,-0.75 0.13,-0.22 0.31,-0.4 0.54,-0.53 0.22,-0.14 0.47,-0.2 0.74,-0.2l5.71 0 0 1.56 -5.31 0c-0.1,0 -0.18,0.03 -0.24,0.08 -0.06,0.05 -0.09,0.14 -0.09,0.25l0 3.42c0,0.11 0.03,0.19 0.09,0.25 0.06,0.06 0.14,0.09 0.24,0.09l5.31 0 0 1.56 -5.71 0z"/>
   <path id="_7_6" class="fil181" d="M109.66 13.04l-2.09 -2.5 2.03 0 1.66 1.97 0 0.53 -1.6 0zm-5.6 0l0 -7.2 5.72 0c0.28,0 0.52,0.06 0.75,0.2 0.22,0.13 0.4,0.31 0.54,0.54 0.14,0.22 0.2,0.47 0.2,0.74l0 1.86c0,0.27 -0.06,0.52 -0.2,0.74 -0.14,0.23 -0.32,0.41 -0.54,0.54 -0.23,0.14 -0.47,0.2 -0.75,0.2l-4.16 0.01 0 2.37 -1.56 0zm1.56 -3.94l4.08 0c0,0 0,0 0,0 0,0 0,0 0,0l0 -1.71c0,0 0,0 0,0 0,0 0,0 0,0l-4.08 0c0,0 0,0 0,0 0,0 0,0 0,0l0 1.71c0,0 0,0 0,0 0,0 0,0 0,0z"/>
   <polygon id="_8_7" class="fil181" points="112.08,13.04 112.08,5.83 113.61,5.83 113.61,13.04 "/>
   <path id="_9_8" class="fil181" d="M114.47 13.04l0 -7.2 5.72 0c0.27,0 0.52,0.06 0.74,0.2 0.23,0.13 0.41,0.31 0.55,0.54 0.13,0.22 0.2,0.47 0.2,0.74l0 1.86c0,0.27 -0.07,0.52 -0.2,0.74 -0.14,0.23 -0.32,0.41 -0.55,0.54 -0.22,0.14 -0.47,0.2 -0.74,0.2l-4.17 0.01 0 2.37 -1.55 0zm1.55 -3.94l4.09 0c0,0 0,0 0,0 0,0 0,0 0,0l0 -1.71c0,0 0,0 0,0 0,0 0,0 0,0l-4.09 0c0,0 0,0 0,0 0,0 0,0 0,0l0 1.71c0,0 0,0 0,0 0,0 0,0 0,0z"/>
   <path id="_10_9" class="fil181" d="M122.41 13.04l0 -5.73c0,-0.27 0.07,-0.52 0.2,-0.75 0.14,-0.22 0.31,-0.4 0.54,-0.53 0.22,-0.14 0.47,-0.2 0.74,-0.2l4.24 0c0.27,0 0.52,0.06 0.75,0.2 0.22,0.13 0.4,0.31 0.54,0.53 0.13,0.23 0.2,0.48 0.2,0.75l0 5.73 -1.57 0 0 -2.33 -4.09 0 0 2.33 -1.55 0zm1.55 -3.89l4.09 0 0 -1.76c0,0 0,0 0,0 0,0 0,0 0,0l-4.09 0c0,0 0,0 0,0 0,0 0,0 0,0l0 1.76z"/>
   <polygon id="_11_10" class="fil181" points="130.77,13.04 130.77,5.82 132.33,5.82 132.33,11.48 137.99,11.48 137.99,13.04 "/>
   <path id="_12_11" class="fil181" d="M138.59 13.04l0 -7.21 5.72 0c0.27,0 0.52,0.06 0.74,0.2 0.23,0.13 0.41,0.31 0.54,0.53 0.14,0.23 0.21,0.48 0.21,0.75l0 4.25c0,0.27 -0.07,0.52 -0.21,0.74 -0.13,0.22 -0.31,0.4 -0.54,0.54 -0.22,0.13 -0.47,0.2 -0.74,0.2l-5.72 0zm1.54 -1.56l4.1 0c0,0 0,0 0,0 0,0 0,0 0,0l0 -4.09c0,0 0,0 0,0 0,0 0,0 0,0l-4.1 0c0,0 0,0 0,0 0,0 0,0 0,0l0 4.09c0,0 0,0 0,0 0,0 0,0 0,0z"/>
   <polygon id="_13_12" class="fil181" points="146.67,13.04 146.67,5.83 148.2,5.83 148.2,13.04 "/>
   <path class="fil181" d="M52.17 17.72l0 -2.63 2.2 0c0.08,0 0.15,0.02 0.22,0.06 0.07,0.04 0.12,0.09 0.16,0.16 0.04,0.06 0.06,0.14 0.06,0.22l0 1.75c0,0.08 -0.02,0.16 -0.06,0.23 -0.04,0.06 -0.09,0.12 -0.16,0.15 -0.07,0.04 -0.14,0.06 -0.22,0.06l-2.2 0zm0.44 -0.29l1.76 0c0.04,0 0.07,-0.02 0.1,-0.05 0.03,-0.02 0.04,-0.06 0.04,-0.1l0 -1.75c0,-0.04 -0.01,-0.07 -0.04,-0.1 -0.03,-0.03 -0.06,-0.04 -0.1,-0.04l-1.76 0c-0.04,0 -0.07,0.01 -0.1,0.04 -0.03,0.03 -0.04,0.06 -0.04,0.1l0 1.75c0,0.04 0.01,0.08 0.04,0.1 0.03,0.03 0.06,0.05 0.1,0.05z"/>
   <polygon id="_1_13" class="fil181" points="56.84,17.72 56.84,15.09 59.24,15.09 59.24,15.39 57.14,15.39 57.14,16.26 58.83,16.26 58.83,16.56 57.14,16.56 57.14,17.43 59.24,17.43 59.24,17.72 "/>
   <path id="_2_14" class="fil181" d="M61.67 17.72c-0.08,0 -0.15,-0.02 -0.22,-0.06 -0.07,-0.03 -0.12,-0.09 -0.16,-0.15 -0.04,-0.07 -0.06,-0.15 -0.06,-0.23l0 -0.1 0.3 0 0 0.1c0,0.04 0.01,0.08 0.04,0.1 0.03,0.03 0.06,0.05 0.1,0.05l1.76 0c0.04,0 0.07,-0.02 0.1,-0.05 0.03,-0.02 0.04,-0.06 0.04,-0.1l0 -0.59c0,-0.03 -0.01,-0.07 -0.04,-0.09 -0.03,-0.03 -0.06,-0.04 -0.1,-0.04l-1.76 0c-0.08,0 -0.15,-0.02 -0.22,-0.06 -0.07,-0.04 -0.12,-0.1 -0.16,-0.16 -0.04,-0.07 -0.06,-0.14 -0.06,-0.22l0 -0.59c0,-0.08 0.02,-0.16 0.06,-0.22 0.04,-0.07 0.09,-0.12 0.16,-0.16 0.07,-0.04 0.14,-0.06 0.22,-0.06l1.76 0c0.08,0 0.15,0.02 0.22,0.06 0.07,0.04 0.12,0.09 0.16,0.16 0.04,0.06 0.06,0.14 0.06,0.22l0 0.1 -0.3 0 0 -0.1c0,-0.04 -0.01,-0.07 -0.04,-0.1 -0.03,-0.03 -0.06,-0.04 -0.1,-0.04l-1.76 0c-0.04,0 -0.07,0.01 -0.1,0.04 -0.03,0.03 -0.04,0.06 -0.04,0.1l0 0.59c0,0.04 0.01,0.07 0.04,0.1 0.03,0.02 0.06,0.04 0.1,0.04l1.76 0c0.08,0 0.15,0.02 0.22,0.06 0.07,0.04 0.12,0.09 0.16,0.16 0.04,0.06 0.06,0.13 0.06,0.21l0 0.59c0,0.08 -0.02,0.16 -0.06,0.23 -0.04,0.06 -0.09,0.12 -0.16,0.15 -0.07,0.04 -0.14,0.06 -0.22,0.06l-1.76 0z"/>
   <polygon id="_3_15" class="fil181" points="65.88,17.72 65.88,15.09 68.29,15.09 68.29,15.39 66.18,15.39 66.18,16.26 67.87,16.26 67.87,16.56 66.18,16.56 66.18,17.43 68.29,17.43 68.29,17.72 "/>
   <polygon id="_4_16" class="fil181" points="70.29,17.72 70.29,15.09 70.7,15.09 72.63,17.39 72.63,15.09 72.93,15.09 72.93,17.72 72.52,17.72 70.59,15.43 70.59,17.72 "/>
   <polygon id="_5_17" class="fil181" points="76.4,17.72 76.4,17.72 74.88,15.09 75.23,15.09 76.58,17.43 77.92,15.09 78.27,15.09 76.75,17.72 "/>
   <path id="_6_18" class="fil181" d="M80.55 17.72c-0.08,0 -0.15,-0.02 -0.22,-0.06 -0.07,-0.03 -0.12,-0.09 -0.16,-0.15 -0.04,-0.07 -0.06,-0.15 -0.06,-0.23l0 -1.75c0,-0.08 0.02,-0.16 0.06,-0.22 0.04,-0.07 0.09,-0.12 0.16,-0.16 0.07,-0.04 0.14,-0.06 0.22,-0.06l1.76 0c0.08,0 0.15,0.02 0.22,0.06 0.07,0.04 0.12,0.09 0.16,0.16 0.04,0.06 0.06,0.14 0.06,0.22l0 1.75c0,0.08 -0.02,0.16 -0.06,0.23 -0.04,0.06 -0.09,0.12 -0.16,0.15 -0.07,0.04 -0.14,0.06 -0.22,0.06l-1.76 0zm0 -0.29l1.76 0c0.04,0 0.07,-0.02 0.1,-0.05 0.03,-0.02 0.04,-0.06 0.04,-0.1l0 -1.75c0,-0.04 -0.01,-0.07 -0.04,-0.1 -0.03,-0.03 -0.06,-0.04 -0.1,-0.04l-1.76 0c-0.04,0 -0.07,0.01 -0.1,0.04 -0.03,0.03 -0.04,0.06 -0.04,0.1l0 1.75c0,0.04 0.01,0.08 0.04,0.1 0.03,0.03 0.06,0.05 0.1,0.05z"/>
   <polygon id="_7_19" class="fil181" points="84.77,17.72 84.77,15.09 85.06,15.09 85.06,17.43 87.4,17.43 87.4,17.72 "/>
   <polygon id="_8_20" class="fil181" points="89.83,17.72 89.83,17.72 88.31,15.09 88.66,15.09 90.01,17.43 91.35,15.09 91.7,15.09 90.18,17.72 "/>
   <polygon id="_9_21" class="fil181" points="93.68,17.72 93.68,15.09 96.08,15.09 96.08,15.39 93.98,15.39 93.98,16.26 95.67,16.26 95.67,16.56 93.98,16.56 93.98,17.43 96.08,17.43 96.08,17.72 "/>
   <path id="_10_22" class="fil181" d="M98.1 17.72l0 -2.63 2.19 0c0.08,0 0.16,0.02 0.22,0.06 0.07,0.04 0.12,0.09 0.16,0.16 0.04,0.06 0.06,0.14 0.06,0.22l0 1.75c0,0.08 -0.02,0.16 -0.06,0.23 -0.04,0.06 -0.09,0.12 -0.16,0.15 -0.06,0.04 -0.14,0.06 -0.22,0.06l-2.19 0zm0.44 -0.29l1.75 0c0.04,0 0.08,-0.02 0.1,-0.05 0.03,-0.02 0.05,-0.06 0.05,-0.1l0 -1.75c0,-0.04 -0.02,-0.07 -0.05,-0.1 -0.02,-0.03 -0.06,-0.04 -0.1,-0.04l-1.75 0c-0.04,0 -0.08,0.01 -0.1,0.04 -0.03,0.03 -0.05,0.06 -0.05,0.1l0 1.75c0,0.04 0.02,0.08 0.05,0.1 0.02,0.03 0.06,0.05 0.1,0.05z"/>
   <path id="_11_23" class="fil181" d="M103.19 17.72c-0.08,0 -0.15,-0.02 -0.22,-0.06 -0.07,-0.03 -0.12,-0.09 -0.16,-0.15 -0.04,-0.07 -0.06,-0.15 -0.06,-0.23l0 -1.75c0,-0.08 0.02,-0.16 0.06,-0.22 0.04,-0.07 0.09,-0.12 0.16,-0.16 0.07,-0.04 0.14,-0.06 0.22,-0.06l1.76 0c0.08,0 0.15,0.02 0.22,0.06 0.06,0.04 0.12,0.09 0.16,0.16 0.04,0.06 0.05,0.14 0.05,0.22l0 1.75c0,0.08 -0.01,0.16 -0.05,0.23 -0.04,0.06 -0.1,0.12 -0.16,0.15 -0.07,0.04 -0.14,0.06 -0.22,0.06l-1.76 0zm0 -0.29l1.76 0c0.03,0 0.07,-0.02 0.1,-0.05 0.02,-0.02 0.04,-0.06 0.04,-0.1l0 -1.75c0,-0.04 -0.02,-0.07 -0.04,-0.1 -0.03,-0.03 -0.07,-0.04 -0.1,-0.04l-1.76 0c-0.04,0 -0.07,0.01 -0.1,0.04 -0.03,0.03 -0.04,0.06 -0.04,0.1l0 1.75c0,0.04 0.01,0.08 0.04,0.1 0.03,0.03 0.06,0.05 0.1,0.05z"/>
   <path id="_12_24" class="fil181" d="M109.63 17.72l-0.86 -1.02 0.39 0 0.86 1.02 0 0 -0.39 0zm-2.23 0l0 -2.63 2.2 0c0.08,0 0.15,0.02 0.22,0.06 0.07,0.04 0.12,0.1 0.16,0.16 0.04,0.07 0.06,0.14 0.06,0.22l0 0.77c0,0.08 -0.02,0.16 -0.06,0.22 -0.04,0.07 -0.09,0.12 -0.16,0.16 -0.07,0.04 -0.14,0.06 -0.22,0.06l-1.9 0 0 0.98 -0.3 0zm0.44 -1.28l1.76 0c0.04,0 0.07,-0.01 0.1,-0.04 0.03,-0.02 0.04,-0.06 0.04,-0.1l0 -0.77c0,-0.04 -0.01,-0.07 -0.04,-0.1 -0.03,-0.03 -0.06,-0.04 -0.1,-0.04l-1.76 0c-0.04,0 -0.07,0.01 -0.1,0.04 -0.03,0.03 -0.04,0.06 -0.04,0.1l0 0.77c0,0.04 0.01,0.08 0.04,0.1 0.03,0.03 0.06,0.04 0.1,0.04z"/>
   <polygon id="_13_25" class="fil181" points="113.04,17.72 113.04,15.09 115.44,15.09 115.44,15.39 113.34,15.39 113.34,16.26 115.03,16.26 115.03,16.56 113.34,16.56 113.34,17.72 "/>
   <path id="_14_26" class="fil181" d="M119.54 17.72l-0.86 -1.02 0.39 0 0.86 1.02 0 0 -0.39 0zm-2.23 0l0 -2.63 2.2 0c0.08,0 0.15,0.02 0.22,0.06 0.07,0.04 0.12,0.1 0.16,0.16 0.04,0.07 0.06,0.14 0.06,0.22l0 0.77c0,0.08 -0.02,0.16 -0.06,0.22 -0.04,0.07 -0.09,0.12 -0.16,0.16 -0.07,0.04 -0.14,0.06 -0.22,0.06l-1.9 0 0 0.98 -0.3 0zm0.44 -1.28l1.76 0c0.04,0 0.07,-0.01 0.1,-0.04 0.03,-0.02 0.04,-0.06 0.04,-0.1l0 -0.77c0,-0.04 -0.01,-0.07 -0.04,-0.1 -0.03,-0.03 -0.06,-0.04 -0.1,-0.04l-1.76 0c-0.04,0 -0.07,0.01 -0.1,0.04 -0.03,0.03 -0.04,0.06 -0.04,0.1l0 0.77c0,0.04 0.01,0.08 0.04,0.1 0.03,0.03 0.06,0.04 0.1,0.04z"/>
   <path id="_15_27" class="fil181" d="M122.38 17.72c-0.08,0 -0.15,-0.02 -0.22,-0.06 -0.07,-0.03 -0.12,-0.09 -0.16,-0.15 -0.04,-0.07 -0.06,-0.15 -0.06,-0.23l0 -1.75c0,-0.08 0.02,-0.16 0.06,-0.22 0.04,-0.07 0.09,-0.12 0.16,-0.16 0.07,-0.04 0.14,-0.06 0.22,-0.06l1.76 0c0.08,0 0.15,0.02 0.22,0.06 0.06,0.04 0.12,0.09 0.16,0.16 0.03,0.06 0.05,0.14 0.05,0.22l0 1.75c0,0.08 -0.02,0.16 -0.05,0.23 -0.04,0.06 -0.1,0.12 -0.16,0.15 -0.07,0.04 -0.14,0.06 -0.22,0.06l-1.76 0zm0 -0.29l1.76 0c0.03,0 0.07,-0.02 0.1,-0.05 0.02,-0.02 0.04,-0.06 0.04,-0.1l0 -1.75c0,-0.04 -0.02,-0.07 -0.04,-0.1 -0.03,-0.03 -0.07,-0.04 -0.1,-0.04l-1.76 0c-0.04,0 -0.07,0.01 -0.1,0.04 -0.03,0.03 -0.04,0.06 -0.04,0.1l0 1.75c0,0.04 0.01,0.08 0.04,0.1 0.03,0.03 0.06,0.05 0.1,0.05z"/>
   <polygon id="_16_28" class="fil181" points="126.59,17.72 126.59,15.09 127,15.09 128.93,17.39 128.93,15.09 129.23,15.09 129.23,17.72 128.82,17.72 126.89,15.43 126.89,17.72 "/>
   <polygon id="_17_29" class="fil181" points="132.29,17.72 132.29,17.72 132.29,15.39 131.12,15.39 131.12,15.09 133.76,15.09 133.76,15.39 132.59,15.39 132.59,17.72 "/>
   <polygon id="_18_30" class="fil181" points="136.65,17.72 136.65,15.09 139.05,15.09 139.05,15.39 136.94,15.39 136.94,16.26 138.64,16.26 138.64,16.56 136.94,16.56 136.94,17.43 139.05,17.43 139.05,17.72 "/>
   <polygon id="_19_31" class="fil181" points="141.06,17.72 141.06,15.09 141.47,15.09 143.4,17.39 143.4,15.09 143.69,15.09 143.69,17.72 143.29,17.72 141.36,15.43 141.36,17.72 "/>
   <path id="_20_32" class="fil181" d="M145.73 17.72l0 -2.63 2.19 0c0.08,0 0.16,0.02 0.22,0.06 0.07,0.04 0.12,0.09 0.16,0.16 0.04,0.06 0.06,0.14 0.06,0.22l0 1.75c0,0.08 -0.02,0.16 -0.06,0.23 -0.04,0.06 -0.09,0.12 -0.16,0.15 -0.06,0.04 -0.14,0.06 -0.22,0.06l-2.19 0zm0.44 -0.29l1.75 0c0.04,0 0.08,-0.02 0.1,-0.05 0.03,-0.02 0.05,-0.06 0.05,-0.1l0 -1.75c0,-0.04 -0.02,-0.07 -0.05,-0.1 -0.02,-0.03 -0.06,-0.04 -0.1,-0.04l-1.75 0c-0.04,0 -0.08,0.01 -0.1,0.04 -0.03,0.03 -0.05,0.06 -0.05,0.1l0 1.75c0,0.04 0.02,0.08 0.05,0.1 0.02,0.03 0.06,0.05 0.1,0.05z"/>
  </g>
 </g>
</svg>
